<svg width="50" height="50" viewBox="0 0 50 50" fill="none" xmlns="http://www.w3.org/2000/svg">
<g id="social link(Instagram)">
<rect id="Rectangle 24" x="50" y="50" width="50" height="50" rx="10" transform="rotate(180 50 50)" fill="white"/>
<path id="Vector" d="M24.9969 32.1789C28.9697 32.1789 32.1741 28.9737 32.1741 25C32.1741 21.0263 28.9697 17.8212 24.9969 17.8212C21.0241 17.8212 17.8196 21.0263 17.8196 25C17.8196 28.9737 21.0241 32.1789 24.9969 32.1789ZM24.9969 20.3328C27.5642 20.3328 29.663 22.4259 29.663 25C29.663 27.5742 27.5704 29.6672 24.9969 29.6672C22.4233 29.6672 20.3307 27.5742 20.3307 25C20.3307 22.4259 22.4296 20.3328 24.9969 20.3328ZM15.852 32.4725C15.852 31.5416 16.6016 30.7981 17.526 30.7981C18.4568 30.7981 19.2001 31.5478 19.2001 32.4725C19.2001 33.3972 18.4505 34.147 17.526 34.147C16.6016 34.147 15.852 33.3972 15.852 32.4725ZM11.0984 30.7731C11.2046 33.0161 11.7168 35.0029 13.3596 36.6399C14.9962 38.2768 16.9826 38.7892 19.2251 38.9016C21.5363 39.0328 28.4637 39.0328 30.7749 38.9016C33.0112 38.7954 34.9975 38.2831 36.6404 36.6461C38.2832 35.0092 38.7892 33.0223 38.9016 30.7793C39.0328 28.4676 39.0328 21.5387 38.9016 19.2269C38.7954 16.9839 38.2832 14.9971 36.6404 13.3602C34.9975 11.7232 33.0174 11.2109 30.7749 11.0984C28.4637 10.9672 21.5363 10.9672 19.2251 11.0984C16.9826 11.2046 14.9962 11.717 13.3596 13.3602C11.723 14.9971 11.2108 16.984 11.0984 19.227C10.9672 21.5387 10.9672 28.4614 11.0984 30.7731ZM14.0842 16.7465C14.5714 15.5219 15.5147 14.5785 16.7452 14.0849C18.5879 13.3539 22.9605 13.5226 24.9969 13.5226C27.0332 13.5226 31.412 13.3602 33.2485 14.0849C34.4728 14.5723 35.4161 15.5157 35.9095 16.7465C36.6404 18.5897 36.4717 22.9632 36.4717 25C36.4717 27.0368 36.6341 31.4166 35.9095 33.2535C35.4223 34.4781 34.4791 35.4215 33.2485 35.9151C31.4058 36.6461 27.0332 36.4774 24.9969 36.4774C22.9605 36.4774 18.5817 36.6399 16.7452 35.9151C15.5209 35.4278 14.5777 34.4843 14.0842 33.2535C13.3534 31.4104 13.522 27.0368 13.522 25C13.522 22.9632 13.3534 18.5834 14.0842 16.7465Z" fill="#F476FF"/>
</g>
</svg>
