<svg width="50" height="50" viewBox="0 0 50 50" fill="none" xmlns="http://www.w3.org/2000/svg">
<g id="social link(LinkedIn)">
<rect id="Rectangle 24" y="50" width="50" height="50" rx="10" transform="rotate(-90 0 50)" fill="white"/>
<path id="Vector" d="M11 12.1429L11 37.8638C11 39.0424 11.9386 40 13.0908 40L37.9092 40C39.0614 40 40 39.0424 40 37.8638L40 12.1429C40 10.9643 39.0614 10 37.9092 10L13.0908 10C11.9386 10 11 10.9643 11 12.1429ZM35.8571 30.933L35.8571 35.3795L22.0174 35.3795L22.0174 30.9263L35.8571 30.9263L35.8571 30.933ZM20.1272 33.1563C20.1272 34.5826 19.0074 35.7344 17.635 35.7344C16.2627 35.7344 15.1429 34.5826 15.1429 33.1563C15.1429 31.7366 16.2627 30.5781 17.635 30.5781C19.0138 30.5781 20.1272 31.7299 20.1272 33.1563ZM35.8571 14.2656L35.8571 18.7121L29.125 18.7121C27.5196 18.7121 25.4547 18.7455 25.4547 21.0223C25.4547 23.3393 27.2025 23.6942 29.0085 23.6942L35.8571 23.6942L35.8571 28.1406L22.0174 28.1406L22.0174 23.875L23.9076 23.875L23.9076 23.8147C22.8201 23.2187 21.6743 21.7656 21.6743 19.6027C21.6743 15.1027 24.542 14.2656 28.2705 14.2656L35.8571 14.2656Z" fill="#3D8CD6"/>
</g>
</svg>
