<svg width="114" height="109" viewBox="0 0 114 109" fill="none" xmlns="http://www.w3.org/2000/svg">
<path fill-rule="evenodd" clip-rule="evenodd" d="M55.9346 107.226C85.2057 107.226 108.935 84.1831 108.935 55.7579C108.935 27.3327 85.2057 4.28949 55.9346 4.28949C26.6635 4.28949 2.93457 27.3327 2.93457 55.7579C2.93457 84.1831 26.6635 107.226 55.9346 107.226ZM55.9346 78.6328C68.9439 78.6328 79.4901 68.3913 79.4901 55.7579C79.4901 43.1245 68.9439 32.8831 55.9346 32.8831C42.9252 32.8831 32.379 43.1245 32.379 55.7579C32.379 68.3913 42.9252 78.6328 55.9346 78.6328Z" fill="#99D0AF"/>
<path d="M104.456 57.3524L93.4378 57.6311C92.0742 57.6655 90.9851 57.2749 90.1704 56.4593C89.3561 55.6583 88.9305 54.5834 88.8934 53.2345C88.8564 51.8857 89.2223 50.7834 89.9911 49.9277C90.7603 49.0867 91.8267 48.6489 93.1902 48.6145L93.2597 51.1435C92.5856 51.1752 92.0551 51.3574 91.6681 51.6899C91.2814 52.0371 91.097 52.5333 91.1147 53.1784C91.1324 53.8235 91.3438 54.3096 91.749 54.6368C92.1688 54.9636 92.7086 55.1187 93.3684 55.102L104.387 54.8234L104.456 57.3524Z" fill="white"/>
<path d="M88.1928 70.3034L90.7264 64.4241L88.2581 62.2615L89.2942 59.8572L101.358 70.5365L100.209 73.2034L83.809 72.5856L84.8538 70.1612L88.1928 70.3034ZM90.3731 70.4117L97.9618 70.75L92.3495 65.8254L90.3731 70.4117Z" fill="white"/>
<path d="M82.942 92.8994L76.9256 77.9532L79.1356 76.0693L93.9083 83.5512L91.8657 85.2924L79.7791 78.9003L84.951 91.1867L82.942 92.8994Z" fill="white"/>
<path d="M63.384 86.8355L69.5733 85.199L69.7748 81.9151L72.3058 81.2459L71.2349 97.3637L68.4274 98.106L58.9062 84.7888L61.4585 84.1139L63.384 86.8355ZM64.6292 88.6221L68.9934 94.8167L69.4573 87.3456L64.6292 88.6221Z" fill="white"/>
<path d="M36.0114 96.1976L40.0547 85.944C40.5551 84.6751 41.3435 83.815 42.4198 83.3636C43.4823 82.9072 44.6477 82.9092 45.916 83.3699C47.1843 83.8305 48.0661 84.5718 48.5613 85.594C49.0428 86.6112 49.0333 87.7542 48.5329 89.0231L46.1549 88.1595C46.3886 87.5268 46.4265 86.9712 46.2685 86.4927C46.0967 86.0092 45.7075 85.6572 45.1009 85.4369C44.4943 85.2167 43.9599 85.2331 43.4975 85.4864C43.0298 85.7533 42.6749 86.1937 42.4328 86.8077L38.3895 97.0613L36.0114 96.1976Z" fill="white"/>
<path d="M29.687 76.9137L34.3416 81.3092L37.3779 79.8832L39.2813 81.6807L24.3367 88.6105L22.2253 86.6167L29.2043 72.1648L31.1237 73.9773L29.687 76.9137ZM28.7341 78.8256L25.4544 85.4939L32.3651 82.2544L28.7341 78.8256Z" fill="white"/>
<path d="M9.4632 63.7394L25.9216 64.3239L26.9063 67.0559L14.3495 77.2957L13.4394 74.7707L23.971 66.5009L10.3584 66.223L9.4632 63.7394Z" fill="white"/>
<path d="M22.1245 48.5477L21.3038 54.8969L24.2648 56.3571L23.9292 58.9535L9.42685 51.7106L9.79914 48.8305L25.706 45.2079L25.3676 47.8261L22.1245 48.5477ZM20.0026 49.004L12.6277 50.6294L19.3624 53.9568L20.0026 49.004Z" fill="white"/>
<path d="M29.5491 16.3773L36.5576 24.884C37.4249 25.9368 37.7774 27.0214 37.615 28.138C37.4643 29.2457 36.8515 30.2074 35.7766 31.0231C34.7017 31.8387 33.5794 32.1935 32.4099 32.0876C31.2519 31.9728 30.2393 31.389 29.372 30.3363L31.3875 28.807C31.8282 29.3188 32.3029 29.6301 32.8118 29.7407C33.3323 29.8424 33.8496 29.6982 34.3637 29.3081C34.8778 28.918 35.1433 28.4682 35.1602 27.9587C35.1678 27.4378 34.9618 26.9227 34.5421 26.4133L27.5336 17.9066L29.5491 16.3773Z" fill="white"/>
<path d="M50.1379 21.5216L43.919 23.042L43.652 26.3226L41.1089 26.9444L42.5015 10.844L45.3224 10.1543L54.5724 23.6528L52.0079 24.2797L50.1379 21.5216ZM48.929 19.7112L44.6909 13.4335L44.0779 20.8973L48.929 19.7112Z" fill="white"/>
<path d="M72.0329 11.5141L63.1273 25.3113L60.2809 24.736L57.9085 8.65947L60.5393 9.19118L62.2558 22.5094L69.4452 10.9912L72.0329 11.5141Z" fill="white"/>
<path d="M78.9905 29.8602L73.8765 26.0088L71.0202 27.7654L68.929 26.1905L82.9977 17.6325L85.3175 19.3795L80.0004 34.5285L77.8916 32.9403L78.9905 29.8602ZM79.7233 27.8528L82.2357 20.8563L75.734 24.8485L79.7233 27.8528Z" fill="white"/>
</svg>
