<svg width="113" height="108" viewBox="0 0 113 108" fill="none" xmlns="http://www.w3.org/2000/svg">
<path fill-rule="evenodd" clip-rule="evenodd" d="M56.0927 107.909C87.0719 107.909 112.185 83.753 112.185 53.9547C112.185 24.1563 87.0719 0 56.0927 0C25.1136 0 0 24.1563 0 53.9547C0 83.753 25.1136 107.909 56.0927 107.909ZM56.0927 77.9345C69.8612 77.9345 81.0228 67.1984 81.0228 53.9547C81.0228 40.711 69.8612 29.9748 56.0927 29.9748C42.3242 29.9748 31.1626 40.711 31.1626 53.9547C31.1626 67.1984 42.3242 77.9345 56.0927 77.9345Z" fill="#F6B941"/>
<path d="M85.0157 93.2365L73.8852 82.4617L75.7352 80.7344L83.3584 88.114L79.1755 77.5223L80.4575 76.3253L91.5372 80.4775L83.9141 73.098L85.764 71.3707L96.8945 82.1454L94.8985 84.0091L82.2107 79.2568L86.9955 91.388L85.0157 93.2365Z" fill="white"/>
<path d="M75.5668 95.2814L73.7902 91.1863L68.7332 93.1502L67.9232 91.2833L72.9802 89.3194L71.1252 85.0437L65.4361 87.2531L64.6261 85.3862L72.7173 82.2439L78.7789 96.2154L70.6877 99.3577L69.8777 97.4908L75.5668 95.2814Z" fill="white"/>
<path d="M55.3138 86.2943L59.4096 92.0736L61.388 91.9467L60.9307 85.9339L63.5231 85.7676L64.6665 100.799L59.2088 101.15C57.996 101.227 56.9573 101.091 56.0928 100.741C55.2131 100.392 54.5428 99.8914 54.0819 99.2399C53.6059 98.5895 53.3361 97.8461 53.2725 97.0098C53.1979 96.0293 53.4331 95.1158 53.9781 94.2695C54.509 93.4385 55.3851 92.8389 56.6063 92.4708L52.2211 86.4927L55.3138 86.2943ZM61.5377 93.9149L58.6725 94.0987C57.7022 94.1609 56.9921 94.4383 56.542 94.9309C56.0768 95.4244 55.8739 96.0605 55.9331 96.8391C55.9923 97.6177 56.2809 98.2078 56.799 98.6092C57.3181 99.0251 58.0704 99.2014 59.0558 99.1382L61.9211 98.9543L61.5377 93.9149Z" fill="white"/>
<path d="M39.0973 82.7479L41.5783 83.496L45.5162 96.4697L49.0432 85.7467L51.5242 86.4948L46.7944 100.875L44.3134 100.127L40.3687 87.1736L36.8485 97.8759L34.3675 97.1278L39.0973 82.7479Z" fill="white"/>
<path d="M8.40789 59.2474L23.6188 54.8299L24.3331 57.1968L13.9153 60.2223L25.6616 61.5985L26.1567 63.2387L17.0737 70.6866L27.4915 67.6611L28.2058 70.028L12.995 74.4455L12.2242 71.8917L22.6231 63.3616L9.1724 61.7804L8.40789 59.2474Z" fill="white"/>
<path d="M10.9241 50.3698L15.5427 50.7539L16.1155 45.5622L18.221 45.7373L17.6482 50.929L22.4706 51.33L23.115 45.4894L25.2205 45.6645L24.304 53.9712L8.54646 52.6607L9.46295 44.3541L11.5685 44.5292L10.9241 50.3698Z" fill="white"/>
<path d="M28.7986 37.3072L21.5284 38.085L20.7054 39.8173L26.462 42.2253L25.3835 44.4951L10.9922 38.4753L13.2626 33.6966C13.7671 32.6346 14.386 31.8195 15.1194 31.2511C15.8591 30.6694 16.6386 30.3351 17.4577 30.2481C18.2831 30.1478 19.0961 30.2651 19.8968 30.6C20.8355 30.9927 21.5652 31.6162 22.086 32.4705C22.5993 33.3058 22.7355 34.3254 22.4944 35.5294L30.0852 34.5992L28.7986 37.3072ZM18.8211 39.0291L20.013 36.5203C20.4167 35.6707 20.4985 34.9412 20.2586 34.3316C20.0249 33.7088 19.5354 33.2415 18.79 32.9296C18.0445 32.6178 17.3638 32.5877 16.7478 32.8392C16.1181 33.085 15.5982 33.6393 15.1883 34.5021L13.9963 37.0109L18.8211 39.0291Z" fill="white"/>
<path d="M39.682 25.2045L37.8202 26.9611L23.9869 24.306L32.2184 32.2462L30.3566 34.0028L19.3179 23.3546L21.1797 21.5981L34.9971 24.2379L26.7815 16.313L28.6433 14.5564L39.682 25.2045Z" fill="white"/>
<path d="M80.6671 13.4495L74.3593 27.2507L71.9747 26.26L76.2949 16.8077L67.5403 24.4176L65.8879 23.7311L65.7528 12.4277L61.4326 21.88L59.048 20.8893L65.3559 7.08807L67.9287 8.157L68.086 21.1L78.1153 12.3893L80.6671 13.4495Z" fill="white"/>
<path d="M86.2205 20.8885L82.9028 23.9779L86.7382 27.7L85.2257 29.1084L81.3902 25.3863L77.9261 28.612L82.2409 32.7993L80.7284 34.2077L74.5917 28.2524L85.9112 17.7122L92.0479 23.6675L90.5354 25.0759L86.2205 20.8885Z" fill="white"/>
<path d="M85.2487 42.1748L89.3375 36.4223L88.4652 34.726L82.7722 37.3589L81.6292 35.1361L95.8617 28.554L98.2681 33.2334C98.8028 34.2733 99.0629 35.2391 99.0482 36.1308C99.0403 37.0355 98.8057 37.8117 98.3445 38.4594C97.89 39.1201 97.2669 39.6336 96.475 39.9998C95.5467 40.4291 94.5666 40.5606 93.5347 40.3942C92.5231 40.2346 91.6067 39.6849 90.7856 38.7453L86.6123 44.8265L85.2487 42.1748ZM90.3287 33.8642L91.5921 36.3209C92.0199 37.1528 92.5592 37.6757 93.2099 37.8896C93.8674 38.1165 94.5647 38.0595 95.3019 37.7185C96.0392 37.3776 96.5056 36.9044 96.7013 36.2991C96.9106 35.6874 96.798 34.9591 96.3636 34.1142L95.1002 31.6575L90.3287 33.8642Z" fill="white"/>
<path d="M87.9955 57.6647L87.7775 55.2016L98.9139 46.8828L87.1217 47.791L86.9038 45.3279L102.718 44.11L102.936 46.573L91.8218 54.8902L103.591 53.9837L103.809 56.4467L87.9955 57.6647Z" fill="white"/>
</svg>
